<svg aria-hidden="true" style="position: absolute; width: 0; height: 0; overflow: hidden;" version="1.1" xmlns="http://www.w3.org/2000/svg" xmlns:xlink="http://www.w3.org/1999/xlink">
<defs>
<symbol id="icon-arrow-down" viewBox="0 0 20 20">
<path d="M10 17.5l-6.5-6.5h3.5v-8h6v8h3.5l-6.5 6.5z"></path>
</symbol>
<symbol id="icon-arrow-up" viewBox="0 0 20 20">
<path d="M10 2.5l6.5 6.5h-3.5v8h-6v-8h-3.5l6.5-6.5z"></path>
</symbol>
<symbol id="icon-adjust" viewBox="0 0 20 20">
<path d="M19 9.199c-0.182 0-0.799 0-0.98 0-0.553 0-1 0.359-1 0.801s0.447 0.799 1 0.799c0.182 0 0.799 0 0.98 0 0.552 0 1-0.357 1-0.799 0-0.441-0.449-0.801-1-0.801zM10 4.5c-3.051 0-5.5 2.449-5.5 5.5s2.449 5.5 5.5 5.5c3.050 0 5.5-2.449 5.5-5.5s-2.451-5.5-5.5-5.5zM10 14c-2.211 0-4-1.791-4-4 0-2.211 1.789-4 4-4v8zM3 10c0-0.441-0.449-0.801-1-0.801-0.185 0-0.816 0-1 0-0.553 0-1 0.359-1 0.801s0.447 0.799 1 0.799c0.184 0 0.815 0 1 0 0.551 0 1-0.358 1-0.799zM10 3c0.441 0 0.799-0.447 0.799-1 0-0.184 0-0.816 0-1 0-0.553-0.358-1-0.799-1s-0.801 0.447-0.801 1c0 0.184 0 0.816 0 1 0 0.553 0.359 1 0.801 1zM10 17c-0.442 0-0.801 0.447-0.801 1 0 0.184 0 0.816 0 1 0 0.553 0.359 1 0.801 1s0.799-0.447 0.799-1c0-0.184 0-0.816 0-1 0-0.553-0.358-1-0.799-1zM17.365 3.766c0.391-0.391 0.454-0.961 0.142-1.273s-0.883-0.248-1.272 0.143c-0.108 0.107-0.593 0.592-0.7 0.699-0.391 0.391-0.454 0.961-0.142 1.273s0.883 0.248 1.273-0.143c0.107-0.108 0.591-0.592 0.699-0.699zM3.334 15.533c-0.108 0.109-0.593 0.594-0.7 0.701-0.391 0.391-0.454 0.959-0.142 1.271s0.883 0.25 1.272-0.141c0.108-0.107 0.593-0.592 0.7-0.699 0.391-0.391 0.454-0.961 0.142-1.274s-0.883-0.247-1.272 0.142zM3.765 2.635c-0.39-0.391-0.961-0.455-1.273-0.143s-0.248 0.883 0.141 1.274c0.108 0.107 0.593 0.592 0.7 0.699 0.391 0.391 0.96 0.455 1.272 0.143s0.249-0.883-0.141-1.273c-0.107-0.108-0.591-0.593-0.699-0.7zM15.534 16.666c0.108 0.107 0.593 0.592 0.7 0.699 0.391 0.391 0.96 0.453 1.272 0.143 0.312-0.312 0.249-0.883-0.142-1.273-0.107-0.107-0.592-0.592-0.699-0.699-0.391-0.391-0.961-0.455-1.274-0.143s-0.248 0.882 0.143 1.273z"></path>
</symbol>
<symbol id="icon-water" viewBox="0 0 20 20">
<path d="M9.882 9.093c-0.511 4.115-3.121 4.847-3.121 7.708 0 1.766 1.483 3.199 3.239 3.199s3.238-1.434 3.238-3.199c0-2.861-2.61-3.593-3.121-7.708-0.016-0.123-0.219-0.123-0.235 0zM3.883 0.093c-0.511 4.115-3.121 4.846-3.121 7.708 0 1.765 1.482 3.199 3.238 3.199s3.238-1.434 3.238-3.199c0-2.861-2.61-3.593-3.121-7.708-0.015-0.123-0.219-0.123-0.234 0zM15.883 0.093c-0.511 4.115-3.121 4.847-3.121 7.708 0 1.765 1.482 3.199 3.238 3.199s3.238-1.434 3.238-3.199c0-2.861-2.61-3.593-3.121-7.708-0.016-0.123-0.219-0.123-0.234 0z"></path>
</symbol>
<symbol id="icon-onedrive" viewBox="0 0 20 20">
<path d="M6.429 9.847c0.487-1.961 2.249-3.394 4.341-3.394 1.236 0 2.394 0.505 3.232 1.382 0.354-0.114 0.768-0.202 1.136-0.21v-0.13c0-2.482-1.845-4.495-4.12-4.495-1.626 0-3.020 1.038-3.69 2.531-0.494-0.334-1.071-0.535-1.694-0.535-1.785 0-3.231 1.577-3.231 3.523 0 0.21 0.024 0.414 0.057 0.613-1.377 0.136-2.455 1.544-2.455 3.080 0 0.016 0.004 0.029 0.004 0.045-0.001 0.014-0.009 0.028-0.009 0.042 0 0.615 0.214 1.177 0.561 1.631 0.492 0.662 1.262 1.070 2.14 1.070h1.261c-0.246-0.488-0.398-1.032-0.398-1.615-0.001-1.737 1.23-3.192 2.865-3.538zM17.889 11.777c-0.025 0-0.050 0.007-0.075 0.008 0.007-0.074 0.022-0.146 0.022-0.222 0-1.472-1.193-2.664-2.665-2.664-0.586 0-1.123 0.194-1.564 0.516-0.546-1.015-1.604-1.712-2.838-1.712-1.788 0-3.237 1.449-3.237 3.237 0 0.023 0.006 0.043 0.007 0.066-0.118-0.018-0.236-0.036-0.359-0.036-1.335 0-2.415 1.081-2.415 2.415 0 0.167 0.017 0.33 0.049 0.487 0.228 1.211 1.288 2.128 2.566 2.128h10.706v-0.019c1.072-0.102 1.914-0.994 1.914-2.092 0-1.166-0.945-2.112-2.111-2.112z"></path>
</symbol>
<symbol id="icon-renren" viewBox="0 0 20 20">
<path d="M8.468 0.865c-4.351 0.729-7.668 4.512-7.668 9.071 0 2.266 0.82 4.338 2.179 5.941 3.221-1.559 5.472-5.086 5.489-9.191v-5.821zM10.002 12.258c-0.573 2.373-2.285 4.4-4.418 5.748 1.31 0.719 2.816 1.129 4.416 1.129 1.602 0 3.108-0.41 4.418-1.129-2.133-1.348-3.844-3.375-4.416-5.748zM11.535 6.643c0 4.123 2.256 7.668 5.487 9.234 1.358-1.603 2.178-3.676 2.178-5.941 0-4.559-3.315-8.34-7.665-9.070v5.777z"></path>
</symbol>
<symbol id="icon-facebook1" viewBox="0 0 32 32">
<path d="M19 6h5v-6h-5c-3.86 0-7 3.14-7 7v3h-4v6h4v16h6v-16h5l1-6h-6v-3c0-0.542 0.458-1 1-1z"></path>
</symbol>
</defs>
</svg>
